<svg width="501" height="256" viewBox="0 0 501 256" fill="none" xmlns="http://www.w3.org/2000/svg">
<path d="M12.7373 0H488.263C495.294 0 501 2.9158 501 6.50847V197.424C501 201.016 495.294 203.932 488.263 203.932H288.712L156.227 254.698C154.138 255.514 151.472 256 148.602 256C146.513 256 144.56 255.74 142.827 255.288L142.895 255.306C138.701 254.212 135.864 252.025 135.864 249.492V203.932H12.7373C5.7063 203.932 -7.30716e-06 201.016 -7.30716e-06 197.424V6.50847C-7.30716e-06 2.9158 5.7063 0 12.7373 0ZM25.4746 190.915H148.602C155.633 190.915 161.339 193.831 161.339 197.424V236.475L276.824 192.217C278.93 191.401 281.579 190.915 284.466 190.915H475.525V13.0169H25.4746V190.915Z" fill="#2B4B98"/>
<path d="M25.4746 190.915H148.602C155.633 190.915 161.339 193.831 161.339 197.424V236.475L276.824 192.217C278.93 191.401 281.579 190.915 284.466 190.915H475.525V13.0169H25.4746V190.915Z" fill="#2B4B98"/>
</svg>
