<svg width="130" height="46" viewBox="0 0 130 46" fill="none" xmlns="http://www.w3.org/2000/svg">
<path d="M82.7968 41.4841L78.6109 42.0724L77.0913 31.2598L75.8732 31.431L76.9485 39.0826C77.0898 40.0879 77.0391 40.8325 76.7928 41.3144C76.547 41.799 76.1184 42.1381 75.5047 42.3376C74.8941 42.5366 73.9006 42.7344 72.5267 42.9275L71.8702 43.0197L71.5433 40.6931C72.0542 40.6213 72.3951 40.5183 72.5732 40.3858C72.7479 40.2538 72.7952 39.8783 72.7084 39.2604L71.3108 29.3163L80.8974 27.969L82.7968 41.4841ZM96.7237 41.8993L93.8406 42.3045L93.5136 39.9779L86.7729 40.9253L87.0999 43.2518L84.2236 43.6561L83.5004 38.5103L84.3531 38.3904C84.6475 37.2195 84.8118 35.7125 84.8457 33.8666C84.8796 32.0208 84.7444 30.0274 84.4434 27.8859L84.3862 27.4787L93.6445 26.1775L95.1454 36.8563L95.9981 36.7365L96.7237 41.8993ZM90.9628 37.4441L89.837 29.4336L88.5985 29.6077L88.6129 29.7101C88.9763 32.2959 89.0153 34.9794 88.7329 37.7575L90.9628 37.4441ZM107.303 38.04L103.121 38.6278L101.601 27.8152L100.359 27.9897L101.879 38.8023L97.6961 39.3901L95.7967 25.875L105.404 24.5249L107.303 38.04ZM107.264 24.2721L111.467 23.6814C112.604 23.5216 113.491 23.473 114.121 23.5378C114.755 23.603 115.245 23.7545 115.59 23.9936C115.937 24.2351 116.196 24.55 116.36 24.9365C116.526 25.3254 116.667 25.9417 116.786 26.7874L116.952 27.9635C117.073 28.8263 117.057 29.4706 116.902 29.8929C116.745 30.3188 116.398 30.6763 115.862 30.9682C115.328 31.2594 114.604 31.4674 113.694 31.5953L112.574 31.7527L113.338 37.1918L109.162 37.7787L107.264 24.2721ZM111.764 25.9947L112.247 29.4318C112.367 29.4212 112.469 29.4095 112.553 29.3976C112.939 29.3434 113.193 29.227 113.319 29.049C113.446 28.8691 113.473 28.5278 113.403 28.0295L113.247 26.9189C113.182 26.4576 113.054 26.1685 112.863 26.0552C112.67 25.9408 112.306 25.9186 111.764 25.9947L111.764 25.9947Z" fill="#FBF431"/>
<path d="M53.7043 12.3903L55.8945 12.0825L57.9169 15.5421L57.9929 15.5314L58.9834 11.6484L61.1735 11.3406L62.0845 17.8223L60.3628 18.0643L59.8361 14.317L59.7855 14.3241L58.8618 18.2236L57.8237 18.3695L55.8574 14.8504L55.8068 14.8575L56.337 18.6301L54.6153 18.8721L53.7043 12.3903ZM68.7422 13.5818C68.8436 14.3034 68.7888 14.9318 68.5779 15.4671C68.3667 16.0002 68.0406 16.428 67.5996 16.7503C67.1583 17.0705 66.6444 17.2718 66.0578 17.3543C65.4671 17.4373 64.9153 17.3847 64.4026 17.1964C63.8917 17.0057 63.4612 16.6832 63.1112 16.2289C62.763 15.7722 62.5385 15.1852 62.4377 14.4678C62.3362 13.7462 62.3901 13.119 62.5992 12.5861C62.8102 12.0508 63.1352 11.6232 63.5744 11.3033C64.0153 10.981 64.5312 10.7783 65.122 10.6953C65.7086 10.6128 66.2582 10.6658 66.7709 10.8541C67.2834 11.0402 67.7147 11.3615 68.065 11.8179C68.4151 12.2722 68.6408 12.8602 68.7422 13.5818ZM66.9318 13.8362C66.8773 13.448 66.7796 13.1282 66.6389 12.8769C66.4999 12.6231 66.3206 12.4418 66.1009 12.3328C65.883 12.2214 65.6284 12.1862 65.3373 12.2271C65.0461 12.268 64.8101 12.3722 64.6292 12.5396C64.4501 12.7046 64.3277 12.9284 64.262 13.2109C64.1981 13.491 64.1934 13.8251 64.248 14.2134C64.3026 14.6016 64.3993 14.9226 64.5382 15.1763C64.679 15.4276 64.8583 15.609 65.0762 15.7204C65.2959 15.8293 65.5514 15.8634 65.8426 15.8225C66.1337 15.7815 66.3689 15.6786 66.5479 15.5135C66.7288 15.3461 66.8512 15.1224 66.9151 14.8423C66.9808 14.5598 66.9864 14.2244 66.9318 13.8362ZM69.7966 16.7385L69.6062 15.3839L69.7799 15.3336C69.9904 15.2696 70.1556 15.1517 70.2756 14.98C70.3975 14.8058 70.4729 14.5467 70.502 14.2026C70.533 13.8562 70.5184 13.3924 70.4582 12.8113L70.177 10.0752L74.8737 9.41514L75.7846 15.8969L74.0882 16.1353L73.3694 11.0208L71.9895 11.2147L72.1747 13.2672C72.2429 14.0279 72.2263 14.6445 72.1249 15.117C72.0235 15.5896 71.8189 15.9486 71.5113 16.1941C71.2037 16.4396 70.7756 16.6009 70.227 16.678L69.7966 16.7385ZM82.4415 11.6564C82.5429 12.378 82.4882 13.0065 82.2772 13.5418C82.066 14.0749 81.7399 14.5027 81.2989 14.825C80.8577 15.1452 80.3438 15.3465 79.7572 15.429C79.1664 15.512 78.6147 15.4594 78.1019 15.2711C77.591 15.0804 77.1606 14.7579 76.8105 14.3036C76.4623 13.8469 76.2378 13.2599 76.137 12.5425C76.0356 11.8209 76.0895 11.1936 76.2986 10.6608C76.5095 10.1255 76.8346 9.6979 77.2737 9.37799C77.7147 9.05567 78.2306 8.85299 78.8213 8.76997C79.4079 8.68753 79.9576 8.74045 80.4703 8.92874C80.9827 9.11492 81.4141 9.43621 81.7644 9.8926C82.1144 10.3469 82.3401 10.9348 82.4415 11.6564ZM80.6312 11.9109C80.5766 11.5226 80.479 11.2029 80.3382 10.9515C80.1993 10.6978 80.02 10.5165 79.8002 10.4075C79.5823 10.2961 79.3278 10.2609 79.0366 10.3018C78.7455 10.3427 78.5094 10.4469 78.3286 10.6143C78.1495 10.7793 78.0271 11.0031 77.9614 11.2856C77.8975 11.5657 77.8928 11.8998 77.9473 12.2881C78.0019 12.6763 78.0987 12.9973 78.2376 13.251C78.3783 13.5023 78.5577 13.6837 78.7756 13.7951C78.9953 13.904 79.2507 13.9381 79.5419 13.8971C79.8331 13.8562 80.0682 13.7532 80.2473 13.5882C80.4281 13.4208 80.5505 13.197 80.6144 12.917C80.6802 12.6345 80.6858 12.2991 80.6312 11.9109ZM83.7148 16.3703L83.3056 13.4586L83.7613 13.3945C83.9002 13.2803 84.019 13.1302 84.1176 12.9442C84.2184 12.7579 84.2899 12.5015 84.3323 12.175C84.3767 11.8481 84.3829 11.418 84.351 10.8846L84.1801 8.1072L88.7629 7.46313L89.4835 12.5903L90.1671 12.4942L90.5764 15.406L88.88 15.6444L88.6611 14.0872L85.1924 14.5747L85.4112 16.1319L83.7148 16.3703ZM85.7742 13.1116L87.7871 12.8287L87.2658 9.11943L85.9619 9.30269L86.0474 10.6462C86.0736 11.047 86.077 11.4005 86.0577 11.7066C86.0401 12.0103 86.0056 12.2776 85.9541 12.5086C85.9045 12.7372 85.8445 12.9382 85.7742 13.1116ZM90.9525 13.7652L90.0416 7.28343L94.713 6.62691L94.9123 8.04479L92.0005 8.45401L92.1571 9.56806L94.8283 9.19265L95.0276 10.6105L92.3564 10.9859L92.5129 12.1L95.412 11.6926L95.6113 13.1104L90.9525 13.7652ZM91.3161 6.52337C91.1009 6.55362 90.9083 6.50753 90.7383 6.38511C90.5683 6.26269 90.4691 6.1002 90.4407 5.89764C90.4122 5.69509 90.4628 5.51155 90.5924 5.34702C90.7221 5.18249 90.8945 5.0851 91.1097 5.05485C91.3186 5.02549 91.507 5.07218 91.6748 5.19489C91.8448 5.31732 91.944 5.47981 91.9725 5.68236C92.0009 5.88492 91.9504 6.06846 91.8207 6.23299C91.6932 6.39722 91.525 6.49402 91.3161 6.52337ZM93.329 6.24048C93.1138 6.27073 92.9212 6.22464 92.7512 6.10222C92.5812 5.97979 92.482 5.81731 92.4535 5.61475C92.4251 5.4122 92.4757 5.22865 92.6053 5.06412C92.7349 4.89959 92.9074 4.8022 93.1226 4.77196C93.3315 4.7426 93.5198 4.78928 93.6877 4.912C93.8577 5.03442 93.9569 5.19691 93.9854 5.39947C94.0138 5.60202 93.9632 5.78556 93.8336 5.95009C93.7061 6.11433 93.5379 6.21112 93.329 6.24048ZM101.257 5.70717L102.168 12.1889L100.472 12.4273L99.5609 5.94559L101.257 5.70717ZM96.3447 13.0074L97.8484 9.28459L95.4591 6.52205L97.6366 6.21602L99.2964 8.5647L102.284 8.14481L103.169 5.43851L105.334 5.13427L103.883 8.41059L106.295 11.6089L104.168 11.9078L102.727 9.735L99.2962 10.2172L98.4589 12.7102L96.3447 13.0074ZM106.976 11.5133L106.065 5.03152L107.824 4.78421L108.18 7.31615L110.51 6.98877L110.154 4.45684L111.914 4.20953L112.824 10.6913L111.065 10.9386L110.709 8.40666L108.38 8.73403L108.735 11.266L106.976 11.5133ZM115.344 10.3372L113.445 10.6041L114.673 3.82166L117.079 3.48362L120.129 9.66468L118.23 9.93157L116.152 5.4341L116.102 5.44121L115.344 10.3372ZM114.63 7.82979L118.2 7.32805L118.385 8.64466L114.815 9.14639L114.63 7.82979ZM126.108 8.82435L124.349 9.07165L123.635 3.99512L123.015 4.0823C122.81 4.11107 122.638 4.16431 122.498 4.24204C122.358 4.31766 122.257 4.42018 122.193 4.5496C122.131 4.67662 122.114 4.83297 122.14 5.01864C122.165 5.20221 122.225 5.34547 122.319 5.44844C122.416 5.55111 122.541 5.61844 122.696 5.65043C122.851 5.68031 123.031 5.68087 123.236 5.65211L124.552 5.46707L124.744 6.83431L123.073 7.06917C122.582 7.13826 122.139 7.11767 121.745 7.00739C121.35 6.89712 121.028 6.69721 120.776 6.40767C120.527 6.11783 120.369 5.74081 120.304 5.27663C120.239 4.81666 120.284 4.40801 120.438 4.05069C120.592 3.69337 120.838 3.40179 121.174 3.17596C121.512 2.94983 121.921 2.80311 122.4 2.73579L125.197 2.34259L126.108 8.82435ZM121.892 6.38308L123.766 6.11976L122.602 9.31718L120.69 9.58584L121.892 6.38308ZM63.4323 23.4165C63.5337 24.1381 63.4789 24.7665 63.268 25.3018C63.0568 25.8349 62.7307 26.2627 62.2897 26.585C61.8484 26.9052 61.3345 27.1065 60.7479 27.189C60.1572 27.272 59.6054 27.2194 59.0927 27.0311C58.5818 26.8404 58.1513 26.5179 57.8013 26.0636C57.4531 25.6069 57.2286 25.0199 57.1278 24.3025C57.0263 23.5809 57.0802 22.9537 57.2893 22.4208C57.5003 21.8855 57.8253 21.4579 58.2645 21.138C58.7054 20.8157 59.2213 20.613 59.8121 20.53C60.3987 20.4476 60.9483 20.5005 61.461 20.6888C61.9735 20.8749 62.4048 21.1962 62.7551 21.6526C63.1051 22.1069 63.3309 22.6949 63.4323 23.4165ZM61.6219 23.6709C61.5674 23.2827 61.4697 22.9629 61.329 22.7116C61.19 22.4578 61.0107 22.2765 60.791 22.1675C60.5731 22.0561 60.3185 22.0209 60.0274 22.0618C59.7362 22.1027 59.5002 22.2069 59.3193 22.3743C59.1402 22.5394 59.0178 22.7631 58.9521 23.0456C58.8882 23.3257 58.8835 23.6599 58.9381 24.0481C58.9927 24.4363 59.0894 24.7573 59.2283 25.011C59.3691 25.2623 59.5484 25.4437 59.7663 25.5551C59.986 25.6641 60.2415 25.6981 60.5327 25.6572C60.8238 25.6162 61.059 25.5133 61.238 25.3482C61.4189 25.1808 61.5413 24.9571 61.6052 24.677C61.6709 24.3945 61.6765 24.0591 61.6219 23.6709ZM64.7019 26.5429L63.791 20.0612L66.5888 19.668C67.0698 19.6003 67.5041 19.6361 67.8916 19.7753C68.2791 19.9145 68.5972 20.142 68.846 20.4577C69.0948 20.7735 69.2515 21.1613 69.3161 21.6213C69.3814 22.0855 69.3345 22.502 69.1754 22.8707C69.0185 23.2392 68.7673 23.5413 68.4217 23.7771C68.0783 24.0125 67.6597 24.1649 67.166 24.2343L65.4949 24.4692L65.3027 23.1019L66.6194 22.9169C66.8261 22.8879 66.9973 22.8272 67.1328 22.735C67.2701 22.6404 67.3683 22.5201 67.4274 22.3741C67.4886 22.2278 67.5063 22.0629 67.4805 21.8793C67.4544 21.6936 67.3921 21.541 67.2935 21.4215C67.1967 21.2995 67.0696 21.2141 66.9122 21.1652C66.7565 21.1139 66.5753 21.1028 66.3685 21.1319L65.7482 21.2191L66.4616 26.2956L64.7019 26.5429ZM74.1972 18.5987L74.3965 20.0165L71.5987 20.4097L72.3104 25.4736L70.5507 25.7209L69.6397 19.2392L74.1972 18.5987ZM76.6297 24.8666L74.7308 25.1335L75.9593 18.351L78.3646 18.013L81.4151 24.194L79.5161 24.4609L77.4382 19.9634L77.3875 19.9706L76.6297 24.8666ZM75.9158 22.3591L79.4859 21.8574L79.6709 23.174L76.1009 23.6757L75.9158 22.3591ZM82.0394 24.1063L81.1284 17.6245L82.8881 17.3772L83.2439 19.9092L85.5733 19.5818L85.2175 17.0499L86.9772 16.8026L87.8881 23.2843L86.1284 23.5316L85.7726 20.9997L83.4432 21.3271L83.799 23.859L82.0394 24.1063ZM87.8127 16.6851L89.5724 16.4378L90.0492 19.8306L90.0999 19.8235L91.9271 16.1069L93.4209 15.8969L94.3319 22.3787L92.5722 22.626L92.0936 19.2206L92.0556 19.2259L90.1922 22.9605L88.7237 23.1669L87.8127 16.6851ZM97.7213 21.9927C97.2107 22.0645 96.7448 22.0407 96.3235 21.9213C95.904 21.7995 95.5596 21.5994 95.2903 21.321C95.0209 21.0425 94.8568 20.702 94.7981 20.2993L96.5705 20.0502C96.5901 20.1744 96.6438 20.2808 96.7315 20.3696C96.8211 20.456 96.9352 20.5174 97.0737 20.5539C97.2123 20.5904 97.3659 20.5968 97.5347 20.573C97.6972 20.5502 97.8367 20.5016 97.9531 20.4271C98.0693 20.3505 98.155 20.2557 98.2101 20.1425C98.2652 20.0293 98.2823 19.9064 98.2615 19.7738C98.2452 19.6427 98.1888 19.5323 98.0923 19.4425C97.9979 19.3525 97.8739 19.2893 97.7203 19.2528C97.5667 19.2163 97.395 19.2113 97.2051 19.238L96.5468 19.3306L96.376 18.1152L97.0343 18.0227C97.2094 17.9981 97.3594 17.948 97.4843 17.8723C97.6114 17.7964 97.7047 17.7026 97.7643 17.5909C97.826 17.479 97.8467 17.3577 97.8262 17.2272C97.8105 17.1003 97.7642 16.9928 97.6872 16.9046C97.6103 16.8165 97.511 16.753 97.3893 16.7141C97.2698 16.675 97.1362 16.6658 96.9885 16.6865C96.8281 16.7091 96.6887 16.7577 96.5701 16.8325C96.4536 16.9069 96.3666 16.9998 96.3091 17.1112C96.2516 17.2226 96.231 17.3438 96.2473 17.4749L94.5635 17.7116C94.5099 17.3146 94.5693 16.9491 94.7418 16.615C94.9165 16.2806 95.1805 16.0004 95.5338 15.7743C95.8872 15.5482 96.3086 15.4007 96.7981 15.3319C97.2771 15.2646 97.7115 15.2864 98.1015 15.3973C98.4936 15.5078 98.813 15.691 99.0598 15.9468C99.3084 16.2002 99.4574 16.5095 99.5065 16.8748C99.5618 17.2372 99.4791 17.5522 99.2585 17.8198C99.0401 18.0872 98.7407 18.2691 98.3605 18.3656L98.3677 18.4162C98.8989 18.3997 99.315 18.5047 99.6158 18.7314C99.9163 18.956 100.092 19.2669 100.144 19.6642C100.199 20.0436 100.133 20.3962 99.9439 20.7218C99.7573 21.0471 99.472 21.3217 99.0882 21.5456C98.7066 21.7693 98.2509 21.9183 97.7213 21.9927ZM102.862 21.1798L100.963 21.4467L102.192 14.6643L104.597 14.3262L107.648 20.5073L105.749 20.7742L103.671 16.2767L103.62 16.2838L102.862 21.1798ZM102.148 18.6724L105.718 18.1707L105.903 19.4873L102.333 19.989L102.148 18.6724ZM114.82 18.1438L115.146 21.0155L113.513 21.245L113.298 19.7132L112.842 19.7773L112.655 18.448L114.82 18.1438ZM108.272 20.4196L107.361 13.9378L109.057 13.6994L109.778 18.8266L112.044 18.5081L111.323 13.3809L113.045 13.139L113.956 19.6207L108.272 20.4196ZM114.689 12.9079L116.449 12.6606L116.926 16.0534L116.976 16.0462L118.804 12.3296L120.297 12.1197L121.208 18.6015L119.449 18.8488L118.97 15.4433L118.932 15.4486L117.069 19.1832L115.6 19.3896L114.689 12.9079ZM127.396 17.7319L125.636 17.9792L124.923 12.9026L124.302 12.9898C124.098 13.0186 123.925 13.0718 123.786 13.1496C123.646 13.2252 123.544 13.3277 123.48 13.4571C123.419 13.5841 123.401 13.7405 123.427 13.9262C123.453 14.1097 123.513 14.253 123.607 14.356C123.703 14.4586 123.829 14.526 123.984 14.5579C124.139 14.5878 124.318 14.5884 124.523 14.5596L125.84 14.3746L126.032 15.7418L124.361 15.9767C123.869 16.0458 123.426 16.0252 123.032 15.9149C122.638 15.8046 122.315 15.6047 122.063 15.3152C121.814 15.0253 121.657 14.6483 121.591 14.1841C121.527 13.7242 121.571 13.3155 121.726 12.9582C121.88 12.6009 122.125 12.3093 122.461 12.0835C122.799 11.8573 123.208 11.7106 123.687 11.6433L126.485 11.2501L127.396 17.7319ZM123.18 15.2906L125.053 15.0273L123.889 18.2247L121.977 18.4934L123.18 15.2906Z" fill="white"/>
<path d="M22.5714 13.786C22.8646 13.984 23.1716 14.1711 23.5123 14.349C23.6991 14.4435 23.8293 14.5123 24.1241 14.5958C24.278 14.6415 24.3561 14.6513 24.4456 14.6702C24.4793 14.6732 24.4992 14.6702 24.5283 14.6708C24.4656 14.8767 24.4328 15.0877 24.4303 15.2996C24.4303 16.8085 25.9317 18.0315 27.7822 18.0315C29.4536 18.0315 30.8271 17.0327 31.0805 15.7299C31.2061 15.8115 31.3087 15.9005 31.445 15.9779C31.8033 16.1692 32.3507 16.3398 32.8124 16.3063C33.4678 16.2527 33.7357 16.0291 34.0757 15.8487C34.6759 15.4588 35.2093 15.0079 35.662 14.5075C34.9799 14.7744 34.3253 15.0669 33.6684 15.274C33.3682 15.3783 32.9647 15.4684 32.8759 15.4215C32.5949 15.374 32.4365 15.2899 32.2052 15.1241C31.3164 14.4727 30.2468 12.3801 27.636 12.3801C25.8207 12.3801 24.5697 13.6367 24.5697 13.6367C24.5697 13.6367 23.5958 13.4587 23.0086 13.2223L20.9789 12.4715C21.4543 12.9554 21.9972 13.3783 22.5714 13.786ZM27.7822 13.4453C29.0386 13.4453 30.0561 14.2759 30.0561 15.2996C30.0561 16.3234 29.0386 17.154 27.7822 17.154C26.5251 17.154 25.5068 16.3234 25.5068 15.2996C25.5068 14.2759 26.5258 13.4453 27.7822 13.4453Z" fill="white"/>
<path d="M27.7822 16.2143C28.4165 16.2143 28.9307 15.8051 28.9307 15.3002C28.9307 14.7954 28.4165 14.3862 27.7822 14.3862C27.148 14.3862 26.6338 14.7954 26.6338 15.3002C26.6338 15.8051 27.148 16.2143 27.7822 16.2143Z" fill="white"/>
<path d="M41.8169 31.3293C42.0948 28.9899 40.6103 27.4134 39.3164 26.0423C38.1963 24.8559 37.462 23.9893 37.5792 22.9503C38.6924 23.1235 39.7938 23.342 40.879 23.6048C44.0165 24.3641 43.6169 27.0161 43.5962 27.1398L43.2609 29.0282L44.8802 27.6614C45.0264 27.5377 48.4465 24.5981 47.1924 21.0942C46.3387 18.7054 43.5763 16.2155 40.9732 15.1747C40.6378 14.1376 40.0644 13.1059 39.2329 12.1108C35.7876 7.98775 29.0095 5.21875 22.3647 5.21875C20.4981 5.21875 18.6828 5.43813 16.9724 5.87017L14.1036 6.59533L17.0489 7.07064C17.2181 7.09806 17.3728 7.13645 17.5137 7.18703C15.863 7.30708 13.8318 7.66844 11.8664 8.57763C10.7907 9.05903 9.78316 9.70863 8.87206 10.5081L7.97552 11.2954L9.25334 11.5355C10.1017 11.6958 10.7731 11.9993 11.2585 12.4405C9.67061 13.0145 7.79712 14.0364 6.52159 15.8225C5.33487 17.1601 4.64734 18.9492 4.47891 21.1411L4.3832 22.3763L5.43594 21.809C4.53327 22.84 3.84267 24.0009 3.69567 25.241C3.69567 25.241 4.93292 23.8224 6.7153 23.5366C6.68314 23.6773 6.64486 23.815 6.61883 23.9595C2.92545 25.8888 2.22491 30.133 2.22491 30.133C4.64658 28.1806 6.62419 28.1245 6.62419 28.1245C2.33592 30.297 1.53125 36.4754 1.53125 36.4754C3.29372 35.2018 4.98039 34.3767 4.98039 34.3767C1.36434 38.7015 3.69031 41.7812 3.69031 41.7812H46.6786C46.6786 41.7812 47.4366 35.1165 41.8169 31.3293ZM45.7484 21.444C46.3073 23.0052 45.6466 24.4817 44.9483 25.4866C44.5701 24.2684 43.5564 22.9601 41.3039 22.4159C38.5913 21.7596 36.4583 21.5244 34.7441 21.3355C32.6401 21.1033 31.1839 20.9425 29.8211 20.1862C32.0866 19.8821 33.8705 19.8108 35.0434 19.8108C36.5081 19.8108 37.3127 19.9193 37.3212 19.9205L38.3103 20.0564L38.1947 19.2374C37.9926 17.8078 38.0676 16.271 38.3479 15.9291C38.4512 15.9139 38.5615 15.9054 38.6786 15.9054C41.0559 15.9054 44.8228 18.8553 45.7484 21.444ZM37.8219 35.7003L37.3587 36.2262C36.237 34.0196 33.1562 31.5736 33.1562 31.5736L33.8598 33.8716C33.8697 33.9014 34.6889 36.6381 33.8843 38.7618C31.0959 37.356 30.3838 35.9623 30.3785 35.9532L29.7997 34.7143L29.0164 35.8752C28.9996 35.9008 27.306 38.3633 23.5575 39.9342C21.0976 37.7313 20.4789 34.1988 20.472 34.1616L20.1941 32.5523L19.0932 33.9106C19.0817 33.924 17.9853 35.2317 14.2345 35.9483C11.038 32.013 11.9568 28.7821 11.966 28.7516L12.6596 26.5243L10.6988 28.1629C10.6988 28.1629 10.3964 28.4164 8.8912 29.6894C8.43795 28.6638 8.17688 27.6462 8.11103 26.6237C7.64706 24.0813 8.69444 21.9278 9.65453 20.5683L10.2686 19.6993L9.04969 19.6378C8.93397 19.6318 8.81805 19.6288 8.70209 19.6286C7.85378 19.6286 6.98173 19.7834 6.1273 20.082C6.38991 18.6475 6.93656 17.455 7.77875 16.5019C9.11477 14.6354 11.1682 13.7415 12.6558 13.3198L13.475 13.0876L13.0807 12.4526C12.602 11.6755 11.8086 11.0491 10.8282 10.6745C11.3864 10.2766 11.9767 9.93714 12.5953 9.66048C14.8937 8.59712 17.3062 8.37348 18.924 8.37348L20.2983 8.38933L19.8496 7.51488C19.6982 7.21372 19.4841 6.935 19.2164 6.69039C20.2542 6.53334 21.3083 6.45499 22.3647 6.45639C28.4391 6.45639 34.865 9.06939 37.9918 12.8103C38.489 13.4014 38.9012 14.0351 39.2207 14.6994C39.0411 14.677 38.8596 14.6652 38.6778 14.6641C38.4168 14.6641 38.1649 14.6878 37.9275 14.7335C37.9115 14.7366 37.8961 14.7433 37.8785 14.7469C37.7989 14.282 37.6021 13.8298 37.2369 13.477C37.3326 14.0017 37.3778 14.4849 37.3847 14.9736C37.2857 15.047 37.1983 15.1297 37.1244 15.2198C36.991 14.7116 36.7961 14.2149 36.5425 13.7366C35.9859 12.7269 35.1292 11.7884 33.9853 11.2351C34.8385 12.0469 35.5383 12.9535 36.0625 13.9261C36.3718 14.4867 36.629 15.0681 36.8625 15.6628C36.5287 16.4233 36.5065 17.5324 36.6076 18.6122C36.2049 18.5884 35.6812 18.5695 35.0434 18.5695C33.5459 18.5695 31.1035 18.6798 27.9759 19.2033L26.6269 19.4288L27.5855 20.2417C29.6909 22.0265 31.726 22.2508 34.5442 22.5616C35.0342 22.6164 35.5464 22.6737 36.0816 22.7395C35.8358 24.3629 36.9942 25.5999 38.1266 26.801C40.056 28.8473 42.0489 30.96 37.8219 35.7003Z" fill="white"/>
<path d="M39.9411 18.6232C40.2696 18.224 40.4189 17.8358 40.2742 17.7566C40.1295 17.6774 39.7451 17.9364 39.4167 18.3361C39.0867 18.7353 38.9389 19.1234 39.0844 19.2033C39.2276 19.2813 39.6111 19.0223 39.9411 18.6232Z" fill="white"/>
<path d="M36.9843 28.2038C36.9424 28.571 36.8516 28.9335 36.7133 29.2854C36.5639 29.0937 36.4029 28.9078 36.2309 28.7284C35.9538 28.4433 35.6552 28.1739 35.3336 27.9229C34.6866 27.4289 33.9631 27.0025 33.1807 26.6541L32.4464 26.3281L32.5513 27.0612C32.6683 27.864 32.6327 28.6763 32.4457 29.4707C32.353 29.8674 32.2221 30.2568 32.072 30.6401C32.0384 30.7248 31.9962 30.8089 31.9595 30.8948C31.5102 30.3509 31.0735 29.8006 30.6495 29.244C30.0304 28.4263 29.4618 27.5849 28.946 26.723L27.9024 24.9674L27.6245 26.9277C27.4791 27.9503 27.146 28.9472 26.535 29.8125C26.236 30.2412 25.8699 30.638 25.4456 30.9935C25.1777 31.2177 24.8862 31.4232 24.5743 31.6077C24.3199 31.2266 24.0783 30.8401 23.85 30.4487C23.5252 29.8883 23.2252 29.319 22.9504 28.7419C22.4068 27.5895 21.965 26.3933 21.8219 25.1843L21.6856 24.0527L20.9475 24.9753C20.4396 25.6188 19.8366 26.2115 19.1514 26.7407C18.8091 27.0003 18.447 27.2422 18.0665 27.4579C17.761 27.6346 17.4279 27.7937 17.1018 27.9222C16.9113 27.6153 16.7518 27.2968 16.6248 26.9698C16.469 26.5593 16.3591 26.1386 16.2963 25.7127C16.1699 24.8462 16.2488 23.9685 16.5291 23.1252C16.121 23.9552 15.9336 24.8435 15.9786 25.734C15.9993 26.1825 16.0697 26.6316 16.1922 27.0703C16.3162 27.514 16.4709 27.9369 16.7174 28.3689L16.8177 28.545L17.0566 28.4823C17.5657 28.3494 17.9976 28.1703 18.4355 27.9637C18.8658 27.7534 19.2739 27.5127 19.6613 27.2525C20.1332 26.9269 20.5732 26.573 20.9774 26.1941C21.1527 27.1904 21.4773 28.1544 21.864 29.0898C22.1209 29.7025 22.4119 30.3057 22.736 30.8978C23.0591 31.492 23.3944 32.0629 23.7857 32.6479L24.0728 33.0745L24.5949 32.8698C25.3254 32.5815 25.8582 32.2366 26.388 31.818C26.9032 31.397 27.3483 30.9251 27.7126 30.414C28.1029 29.8646 28.4088 29.2799 28.6237 28.6724C28.9085 29.0776 29.2017 29.4774 29.5034 29.871C30.1495 30.7124 30.8463 31.5285 31.5912 32.3164L32.2213 32.9868L32.6501 32.2378C32.9058 31.7912 33.0735 31.3847 33.2274 30.9454C33.3797 30.5127 33.4785 30.0685 33.5482 29.6206C33.6446 28.9752 33.6599 28.3171 33.5711 27.6687C34.0259 27.8802 34.4669 28.1105 34.8765 28.3817C35.1996 28.5901 35.5082 28.8174 35.7976 29.0612C36.0816 29.3031 36.3611 29.5718 36.5793 29.8412L36.8649 30.1928L36.9958 29.8144C37.1803 29.2781 37.2561 28.7479 37.2415 28.208C37.2255 27.6718 37.0731 27.1362 36.7791 26.673C36.9965 27.1691 37.031 27.6956 36.9843 28.2038Z" fill="white"/>
<path d="M17.8329 18.8127C18.4168 18.8206 18.9974 18.7417 19.5449 18.5799C19.4567 18.885 19.3809 19.1923 19.3175 19.5013C19.1843 20.1301 19.0859 20.7632 19.0227 21.3989L18.9913 21.7529L19.3718 21.7072C20.3232 21.5935 21.2601 21.4133 22.1717 21.1686C22.632 21.0473 23.0778 20.8938 23.5039 20.7097C23.9273 20.5244 24.3469 20.2892 24.6125 19.9528C24.291 20.2514 23.8507 20.4099 23.4197 20.5482C22.9833 20.6853 22.5285 20.7755 22.0745 20.8584C21.3064 20.9854 20.5294 21.0753 19.7478 21.1277C19.8726 20.6353 20.0012 20.1411 20.1551 19.6567C20.3434 19.0595 20.5333 18.4623 20.7967 17.909L21.4115 16.6177L20.0402 17.4246C19.4208 17.789 18.6521 17.948 17.8551 17.9218C17.4512 17.9072 17.0498 17.8627 16.6562 17.789C16.5934 17.7768 16.5314 17.7597 16.4686 17.7463C16.8949 17.5015 17.3133 17.2481 17.7234 16.9864C18.4117 16.5196 19.0924 16.034 19.6666 15.4392L20.2194 14.8676L19.404 14.998C18.9295 15.0768 18.4455 15.1136 17.9608 15.1077C17.4731 15.0937 16.977 15.0474 16.4969 14.9066C17.1102 15.2631 17.8505 15.4423 18.607 15.5014C18.1568 15.8061 17.689 16.0986 17.1998 16.3679C16.5015 16.7725 15.755 17.1394 15.033 17.4965L14.1671 17.9248L15.0706 18.2685C15.5033 18.4331 15.9558 18.5625 16.4211 18.6549C16.8782 18.7512 17.3513 18.8072 17.8329 18.8127Z" fill="white"/>
<path d="M11.6896 23.4397C11.355 23.5494 11.0273 23.6652 10.7012 23.7876C10.7157 23.7474 10.728 23.7042 10.7425 23.6646C10.8262 23.4403 10.9282 23.2207 11.048 23.007C11.2846 22.5793 11.61 22.199 12.1023 21.8736C11.4691 21.923 10.8995 22.3002 10.5304 22.7462C10.3462 22.9733 10.1981 23.2177 10.0894 23.4738C9.97458 23.7322 9.90108 23.9851 9.8605 24.2739L9.78241 24.823L10.3612 24.5646C11.221 24.1801 12.1114 23.8041 13.0248 23.5329C12.7883 23.9266 12.6405 24.3568 12.6596 24.7882C12.8258 24.2185 13.2048 23.7358 13.6458 23.3276L14.0178 22.9827L13.4452 23.046C12.8334 23.1118 12.2569 23.2709 11.6896 23.4397Z" fill="white"/>
<path d="M19.4086 11.4453C18.8352 10.9231 18.0626 10.5934 17.2511 10.413C16.4395 10.2449 15.5345 10.2449 14.7789 10.5666C15.6126 10.5983 16.3645 10.6848 17.124 10.8488C17.8835 11.0054 18.6185 11.2253 19.4086 11.4453Z" fill="white"/>
<path d="M20.7645 11.5959C20.4659 10.928 19.8978 10.3747 19.2264 9.94753C18.5503 9.53132 17.7112 9.24065 16.869 9.29672C17.5946 9.57484 18.2802 9.91461 18.914 10.3101C19.5479 10.6983 20.1306 11.1382 20.7645 11.5959Z" fill="white"/>
<path d="M21.2377 10.9158C21.2813 10.4173 21.0685 9.94325 20.7454 9.53985C20.4131 9.14497 19.9224 8.80311 19.3344 8.73486C19.7072 9.11389 20.0173 9.43625 20.3113 9.79822C20.6137 10.1541 20.8847 10.5252 21.2377 10.9158Z" fill="white"/>
</svg>
